<svg width="28" height="27" viewBox="0 0 28 27" fill="none" xmlns="http://www.w3.org/2000/svg">
<path d="M24.6667 26.3333H3.33332C2.62608 26.3333 1.9478 26.0523 1.44771 25.5522C0.947609 25.0521 0.666656 24.3738 0.666656 23.6666V9.06522C0.68882 8.62453 0.818359 8.19588 1.04401 7.81661C1.26965 7.43733 1.58455 7.11901 1.96132 6.88922L12.628 0.489246C13.0423 0.240834 13.5163 0.109619 13.9993 0.109619C14.4824 0.109619 14.9563 0.240834 15.3707 0.489246L26.0373 6.88922C26.8386 7.37325 27.3307 8.23992 27.3333 9.17592V23.6666C27.3333 24.3738 27.0524 25.0521 26.5523 25.5522C26.0522 26.0523 25.3739 26.3333 24.6667 26.3333ZM3.33332 10.1573V23.6666H24.6667V10.1573L14 17.2679L3.33332 10.1573ZM14 2.77591L5.08799 8.12259L14 14.0639L22.9107 8.12259L14 2.77591Z" fill="#F0E3CA"/>
</svg>
